<?xml version="1.0" encoding="UTF-8"?><svg id="Layer_2" xmlns="http://www.w3.org/2000/svg" viewBox="0 0 128.28 128.6"><g id="Layer_1-2"><path d="M49.73,64.57C32.39,47.68,16.1,31.83,0,16.16,5.43,10.63,10.4,5.58,15.12.78c16.1,15.72,32.35,31.57,48.34,47.18C79.69,32,95.97,15.99,112.24,0c5.23,5.5,10.14,10.65,15.7,16.49-15.81,15.39-32.19,31.33-49.09,47.78,17.11,16.7,33.37,32.58,49.43,48.26-5.83,5.8-10.95,10.88-15.9,15.79-15.91-15.49-32.19-31.34-48.26-46.99-16.04,15.62-32.31,31.47-48.53,47.27-4.8-5.06-9.77-10.29-15.15-15.95,15.68-15.3,31.96-31.17,49.29-48.09Z"/></g></svg>