<?xml version="1.0" encoding="UTF-8"?><svg id="Layer_2" xmlns="http://www.w3.org/2000/svg" viewBox="0 0 74.17 76.58"><g id="Layer_1-2"><path d="M37.1,76.52c-9.82,0-19.64.05-29.46-.03-4.2-.03-8.03-4.26-7.61-8.46.47-4.75,1.22-9.47,1.89-14.19.99-6.97,1.99-13.94,3.01-20.91.7-4.77,1.52-9.52,2.12-14.31.17-1.37.73-1.57,1.89-1.55,3.08.06,6.17.02,9.25.02,1.85,0,1.85,0,1.85-1.9,0-2.13.01-4.26,0-6.4C20.01,3.54,24.34-.11,28.71,0c5.88.15,11.76,0,17.65.1,4.06.07,7.63,3.79,7.71,7.84.05,2.56.06,5.12,0,7.67-.03,1.13.4,1.5,1.49,1.48,3.18-.04,6.36.07,9.53-.05,1.45-.05,1.96.44,2.14,1.84.68,5.15,1.46,10.29,2.21,15.44,1.43,9.77,2.86,19.55,4.3,29.32.35,2.39.82,4.79-.12,7.14-1.61,4.02-4.15,5.77-8.48,5.78-9.35.02-18.69,0-28.04,0,0-.02,0-.04,0-.06ZM36.91,68.29c8.92,0,17.84,0,26.77,0,1.63,0,1.69-.1,1.45-1.73-.6-4.16-1.2-8.33-1.78-12.5-1.25-8.94-2.53-17.89-3.72-26.84-.19-1.43-.69-1.87-2.14-1.86-13.76.05-27.52.03-41.29.03-.19,0-.38.01-.57,0-.91-.04-1.36.3-1.45,1.3-.14,1.65-.45,3.28-.68,4.92-.71,5.01-1.42,10.02-2.12,15.03-.91,6.56-1.8,13.12-2.74,19.67-.26,1.82-.2,1.98,1.63,1.98,8.87,0,17.75,0,26.62,0ZM37.02,17.09c2.46,0,4.92-.01,7.39,0,.85,0,1.32-.21,1.29-1.2-.06-2.13-.06-4.26,0-6.38.03-.99-.45-1.2-1.29-1.2-4.88.01-9.75.02-14.63,0-.96,0-1.36.35-1.33,1.34.05,1.98.06,3.97,0,5.96-.04,1.12.38,1.51,1.48,1.49,2.37-.05,4.73-.02,7.1-.02Z"/></g></svg>