<?xml version="1.0" encoding="UTF-8"?><svg id="Layer_2" xmlns="http://www.w3.org/2000/svg" viewBox="0 0 76.33 76.2"><g id="Layer_1-2"><path d="M68.25,33.89c-.07,7.35-2.13,13.89-6.29,19.72-.75,1.05-.79,1.64.18,2.58,4.55,4.43,9.01,8.96,13.54,13.41.83.82.91,1.33,0,2.14-1.34,1.2-2.6,2.5-3.8,3.84-.82.92-1.36.78-2.17-.04-4.47-4.52-9.01-8.95-13.47-13.48-.9-.91-1.48-.87-2.49-.19-10.21,6.87-21.26,8.33-32.58,3.65C10.15,60.95,3.07,52.45.69,40.69-2.62,24.41,6.24,7.99,22.57,2.06c14.08-5.11,28.91-.37,38.01,10.52,5.16,6.16,7.52,13.47,7.67,21.32ZM8.41,33.84c-.36,13.27,10.66,25.82,25.6,25.84,14.55.02,25.67-11.47,25.76-25.54.09-14.24-11.36-25.71-25.67-25.8-13.87-.09-25.9,11.72-25.69,25.49Z"/></g></svg>